<svg width="14" height="14" viewBox="0 0 14 14" fill="none" xmlns="http://www.w3.org/2000/svg">
<path d="M0.292494 0.292494C0.384976 0.199777 0.494842 0.126216 0.615797 0.0760255C0.736752 0.0258345 0.866422 0 0.997377 0C1.12833 0 1.258 0.0258345 1.37896 0.0760255C1.49991 0.126216 1.60978 0.199777 1.70226 0.292494L6.97096 5.56319L12.2397 0.292494C12.3322 0.199927 12.4421 0.126499 12.5631 0.0764024C12.684 0.0263058 12.8136 0.000521262 12.9446 0.000521262C13.0755 0.000521262 13.2051 0.0263058 13.326 0.0764024C13.447 0.126499 13.5569 0.199927 13.6494 0.292494C13.742 0.38506 13.8154 0.494953 13.8655 0.615897C13.9156 0.736841 13.9414 0.866468 13.9414 0.997377C13.9414 1.12829 13.9156 1.25791 13.8655 1.37886C13.8154 1.4998 13.742 1.60969 13.6494 1.70226L8.37874 6.97096L13.6494 12.2397C13.742 12.3322 13.8154 12.4421 13.8655 12.5631C13.9156 12.684 13.9414 12.8136 13.9414 12.9446C13.9414 13.0755 13.9156 13.2051 13.8655 13.326C13.8154 13.447 13.742 13.5569 13.6494 13.6494C13.5569 13.742 13.447 13.8154 13.326 13.8655C13.2051 13.9156 13.0755 13.9414 12.9446 13.9414C12.8136 13.9414 12.684 13.9156 12.5631 13.8655C12.4421 13.8154 12.3322 13.742 12.2397 13.6494L6.97096 8.37874L1.70226 13.6494C1.60969 13.742 1.4998 13.8154 1.37886 13.8655C1.25791 13.9156 1.12829 13.9414 0.997377 13.9414C0.866468 13.9414 0.736841 13.9156 0.615897 13.8655C0.494953 13.8154 0.38506 13.742 0.292494 13.6494C0.199927 13.5569 0.126499 13.447 0.0764024 13.326C0.0263058 13.2051 0.000521262 13.0755 0.000521262 12.9446C0.000521262 12.8136 0.0263058 12.684 0.0764024 12.5631C0.126499 12.4421 0.199927 12.3322 0.292494 12.2397L5.56319 6.97096L0.292494 1.70226C0.199777 1.60978 0.126216 1.49991 0.0760255 1.37896C0.0258345 1.258 0 1.12833 0 0.997377C0 0.866422 0.0258345 0.736752 0.0760255 0.615797C0.126216 0.494842 0.199777 0.384976 0.292494 0.292494Z" fill="white"/>
</svg>
